<svg xmlns="http://www.w3.org/2000/svg" xmlns:xlink="http://www.w3.org/1999/xlink" width="320" zoomAndPan="magnify" viewBox="0 0 240 52.499999" height="70" preserveAspectRatio="xMidYMid meet" version="1.0"><defs><g/><clipPath id="be934d14ca"><path d="M 14.386719 15 L 61 15 L 61 38 L 14.386719 38 Z M 14.386719 15 " clip-rule="nonzero"/></clipPath><clipPath id="f33f738c01"><path d="M 30 3.050781 L 49 3.050781 L 49 18 L 30 18 Z M 30 3.050781 " clip-rule="nonzero"/></clipPath></defs><path fill="#5271ff" d="M 54.972656 20.386719 C 51.613281 23.6875 45.761719 25.3125 42.824219 25.957031 C 46.6875 24.191406 51.003906 21.121094 54.574219 15.828125 C 54.574219 15.828125 55.867188 17.28125 54.972656 20.386719 Z M 54.972656 20.386719 " fill-opacity="1" fill-rule="nonzero"/><g clip-path="url(#be934d14ca)"><path fill="#5271ff" d="M 14.386719 32.421875 C 14.386719 32.421875 18.125 22.464844 26.21875 21.304688 C 34.3125 20.148438 35.710938 23.464844 44.820312 20.226562 C 44.820312 20.226562 46.375 25.085938 36.648438 26.320312 C 36.648438 26.320312 35.636719 28.25 38.671875 28.25 C 41.707031 28.25 52.445312 26.90625 59.917969 15.824219 C 59.917969 15.824219 63.421875 19.761719 54.9375 28.484375 C 46.453125 37.203125 35.714844 41.683594 14.386719 32.421875 Z M 14.386719 32.421875 " fill-opacity="1" fill-rule="nonzero"/></g><g clip-path="url(#f33f738c01)"><path fill="#ff6767" d="M 47.226562 4.582031 C 45.683594 3.050781 43.183594 3.050781 41.636719 4.582031 L 39.558594 6.644531 L 37.476562 4.582031 C 35.933594 3.050781 33.429688 3.050781 31.886719 4.582031 C 31.113281 5.347656 30.730469 6.347656 30.730469 7.351562 C 30.730469 8.355469 31.117188 9.359375 31.886719 10.125 L 39.558594 17.734375 L 47.230469 10.125 C 48.773438 8.59375 48.773438 6.113281 47.226562 4.582031 Z M 42.382812 11.621094 L 40.601562 11.621094 L 40.601562 13.386719 L 38.507812 13.386719 L 38.507812 11.621094 L 36.730469 11.621094 L 36.730469 9.542969 L 38.507812 9.542969 L 38.507812 7.777344 L 40.601562 7.777344 L 40.601562 9.546875 L 42.382812 9.546875 Z M 42.382812 11.621094 " fill-opacity="1" fill-rule="nonzero"/></g><g fill="#5271ff" fill-opacity="1"><g transform="translate(66.531887, 32.317215)"><g><path d="M 18.671875 0 L 12.703125 0 L 5.703125 -8.0625 L 5.703125 0 L 1.375 0 L 1.375 -18.984375 L 5.703125 -18.984375 L 5.703125 -11.234375 L 12.21875 -18.984375 L 17.46875 -18.984375 L 9.828125 -9.984375 Z M 18.671875 0 "/></g></g></g><g fill="#5271ff" fill-opacity="1"><g transform="translate(83.488046, 32.317215)"><g><path d="M 5.703125 -18.984375 L 5.703125 -3.796875 L 12.25 -3.796875 L 12.25 0 L 1.375 0 L 1.375 -18.984375 Z M 5.703125 -18.984375 "/></g></g></g><g fill="#5271ff" fill-opacity="1"><g transform="translate(95.336565, 32.317215)"><g><path d="M 5.703125 -18.984375 L 5.703125 0 L 1.375 0 L 1.375 -18.984375 Z M 5.703125 -18.984375 "/></g></g></g><g fill="#5271ff" fill-opacity="1"><g transform="translate(101.272182, 32.317215)"><g><path d="M 5.703125 -11.78125 L 5.703125 0 L 1.375 0 L 1.375 -18.984375 L 5.703125 -18.984375 L 13.25 -7.203125 L 13.296875 -7.203125 L 13.296875 -18.984375 L 17.625 -18.984375 L 17.625 0 L 13.296875 0 L 5.75 -11.78125 Z M 5.703125 -11.78125 "/></g></g></g><g fill="#5271ff" fill-opacity="1"><g transform="translate(119.125631, 32.317215)"><g><path d="M 5.703125 -18.984375 L 5.703125 0 L 1.375 0 L 1.375 -18.984375 Z M 5.703125 -18.984375 "/></g></g></g><g fill="#5271ff" fill-opacity="1"><g transform="translate(125.06125, 32.317215)"><g><path d="M 18.671875 0 L 12.703125 0 L 5.703125 -8.0625 L 5.703125 0 L 1.375 0 L 1.375 -18.984375 L 5.703125 -18.984375 L 5.703125 -11.234375 L 12.21875 -18.984375 L 17.46875 -18.984375 L 9.828125 -9.984375 Z M 18.671875 0 "/></g></g></g><g fill="#5271ff" fill-opacity="1"><g transform="translate(142.017411, 32.317215)"><g/></g></g><g fill="#5271ff" fill-opacity="1"><g transform="translate(147.147779, 32.317215)"><g><path d="M 8.375 -19.328125 C 9.40625 -19.328125 10.410156 -19.175781 11.390625 -18.875 C 12.367188 -18.582031 13.097656 -18.289062 13.578125 -18 L 14.265625 -17.53125 L 12.515625 -14.078125 C 12.378906 -14.171875 12.1875 -14.289062 11.9375 -14.4375 C 11.695312 -14.582031 11.238281 -14.773438 10.5625 -15.015625 C 9.882812 -15.265625 9.253906 -15.390625 8.671875 -15.390625 C 7.953125 -15.390625 7.394531 -15.238281 7 -14.9375 C 6.613281 -14.632812 6.421875 -14.21875 6.421875 -13.6875 C 6.421875 -13.425781 6.507812 -13.1875 6.6875 -12.96875 C 6.875 -12.75 7.191406 -12.507812 7.640625 -12.25 C 8.085938 -12 8.476562 -11.796875 8.8125 -11.640625 C 9.15625 -11.492188 9.675781 -11.265625 10.375 -10.953125 C 11.601562 -10.429688 12.648438 -9.722656 13.515625 -8.828125 C 14.390625 -7.929688 14.828125 -6.914062 14.828125 -5.78125 C 14.828125 -4.6875 14.628906 -3.734375 14.234375 -2.921875 C 13.835938 -2.109375 13.296875 -1.472656 12.609375 -1.015625 C 11.929688 -0.554688 11.175781 -0.21875 10.34375 0 C 9.519531 0.226562 8.628906 0.34375 7.671875 0.34375 C 6.835938 0.34375 6.019531 0.257812 5.21875 0.09375 C 4.425781 -0.0703125 3.757812 -0.28125 3.21875 -0.53125 C 2.6875 -0.789062 2.203125 -1.039062 1.765625 -1.28125 C 1.335938 -1.53125 1.023438 -1.738281 0.828125 -1.90625 L 0.53125 -2.15625 L 2.6875 -5.796875 C 2.875 -5.640625 3.128906 -5.441406 3.453125 -5.203125 C 3.773438 -4.972656 4.34375 -4.65625 5.15625 -4.25 C 5.976562 -3.851562 6.707031 -3.65625 7.34375 -3.65625 C 9.164062 -3.65625 10.078125 -4.28125 10.078125 -5.53125 C 10.078125 -5.789062 10.007812 -6.03125 9.875 -6.25 C 9.75 -6.46875 9.519531 -6.6875 9.1875 -6.90625 C 8.863281 -7.132812 8.570312 -7.3125 8.3125 -7.4375 C 8.0625 -7.570312 7.648438 -7.773438 7.078125 -8.046875 C 6.503906 -8.316406 6.078125 -8.519531 5.796875 -8.65625 C 4.648438 -9.21875 3.757812 -9.925781 3.125 -10.78125 C 2.5 -11.632812 2.1875 -12.550781 2.1875 -13.53125 C 2.1875 -15.238281 2.816406 -16.628906 4.078125 -17.703125 C 5.335938 -18.785156 6.769531 -19.328125 8.375 -19.328125 Z M 8.375 -19.328125 "/></g></g></g><g fill="#5271ff" fill-opacity="1"><g transform="translate(161.458088, 32.317215)"><g><path d="M 12.25 -18.984375 L 12.25 -15.1875 L 5.703125 -15.1875 L 5.703125 -11.421875 L 11.96875 -11.421875 L 11.96875 -7.625 L 5.703125 -7.625 L 5.703125 -3.796875 L 12.25 -3.796875 L 12.25 0 L 1.375 0 L 1.375 -18.984375 Z M 12.25 -18.984375 "/></g></g></g><g fill="#5271ff" fill-opacity="1"><g transform="translate(173.651709, 32.317215)"><g><path d="M 5.703125 -7.625 L 5.703125 0 L 1.375 0 L 1.375 -18.984375 L 5.703125 -18.984375 L 5.703125 -11.421875 L 11.828125 -11.421875 L 11.828125 -18.984375 L 16.15625 -18.984375 L 16.15625 0 L 11.828125 0 L 11.828125 -7.625 Z M 5.703125 -7.625 "/></g></g></g><g fill="#5271ff" fill-opacity="1"><g transform="translate(190.032686, 32.317215)"><g><path d="M 11.03125 -18.984375 L 18.6875 0 L 14.046875 0 L 12.640625 -3.796875 L 5.40625 -3.796875 L 4 0 L -0.640625 0 L 7.015625 -18.984375 Z M 11.15625 -7.59375 L 9.046875 -13.125 L 9 -13.125 L 6.875 -7.59375 Z M 11.15625 -7.59375 "/></g></g></g><g fill="#5271ff" fill-opacity="1"><g transform="translate(206.91982, 32.317215)"><g><path d="M 0.1875 -15.1875 L 0.1875 -18.984375 L 13.53125 -18.984375 L 13.53125 -15.1875 L 9.015625 -15.1875 L 9.015625 0 L 4.6875 0 L 4.6875 -15.1875 Z M 0.1875 -15.1875 "/></g></g></g></svg>